<svg width="1200" height="630" viewBox="0 0 1200 630" fill="none" xmlns="http://www.w3.org/2000/svg">
<rect width="1200" height="630" fill="white"/>
<g clip-path="url(#clip0_1_2)">
<path d="M357.399 195.9H374.787V208.682H379.045V179.237H374.787V191.905H357.399V179.237H353.14V208.682H357.399V195.9Z" fill="black"/>
<path d="M265.052 398.129V214.16L287.965 214.274V198.981L215.426 199.095L155.437 350.881L105.581 198.182L50.7742 198.068V397.444H25.4433C25.4433 403.607 25.4433 409.769 25.3282 415.932H69.5422V223.061L138.857 416.959H146.802L221.643 221.463V415.932H288.08V398.243L265.052 398.129Z" fill="black"/>
<path d="M319.404 195.671C321.591 197.041 322.973 198.068 323.548 198.753C324.124 199.437 324.353 200.35 324.353 201.263C324.353 202.405 323.892 203.318 323.088 204.002C322.28 204.687 319.404 205.029 317.907 205.029C316.525 205.029 315.142 204.687 313.992 204.002L313.877 208.453C315.142 208.91 316.639 209.138 318.25 209.138C320.898 209.138 324.584 208.453 326.31 206.97C327.922 205.486 328.843 203.66 328.843 201.377C328.843 199.437 328.382 197.725 327.464 196.356C326.542 194.987 324.699 193.503 321.82 191.677C321.705 191.563 321.476 191.449 321.13 191.335C317.561 189.166 315.832 187.34 315.832 185.857C315.832 184.829 316.41 183.802 317.329 183.118C317.79 182.775 319.058 182.319 319.979 182.205C320.898 182.091 323.434 182.775 324.124 182.775L324.353 179.009C323.088 179.009 319.979 178.439 318.711 178.781C317.214 179.123 315.603 179.694 314.796 180.493C313.184 181.976 311.802 184.031 311.802 186.313C311.802 187.911 312.263 189.28 313.07 190.536C313.992 191.905 316.064 193.503 319.404 195.671Z" fill="black"/>
<path d="M468.39 255.701L409.67 256.158V266.543L432.581 266.657V355.218C432.581 416.161 353.827 426.775 353.827 361.951V255.701L298.097 255.815V266.086L319.283 266.657V375.875C319.283 410.455 350.255 417.53 374.437 417.53C398.038 417.53 420.263 408.514 432.581 390.939L432.467 416.503H495.909V399.955L468.39 399.727V255.701Z" fill="black"/>
<path d="M578.811 185.742L598.5 208.682H602.301V179.237H598.039V202.062L578.236 179.237H574.55V208.682H578.811V185.742Z" fill="black"/>
<path d="M548.873 179.237H544.615V208.682H548.873V179.237Z" fill="black"/>
<path d="M631.203 206.627C632.586 207.426 633.968 208.111 635.579 208.568C637.191 209.024 638.805 209.252 640.645 209.252C642.257 209.252 643.986 209.024 645.711 208.568C647.44 208.111 649.398 207.54 651.356 206.742V194.302H641.338V198.182H646.979V203.888C645.943 204.345 644.79 204.687 643.754 204.916C642.718 205.144 641.681 205.258 640.645 205.258C637.191 205.258 634.429 204.231 632.125 202.062C629.824 199.894 628.788 197.269 628.788 194.074C628.788 190.878 629.938 188.139 632.239 185.971C634.543 183.802 637.423 182.775 640.877 182.775C642.489 182.775 644.1 183.004 645.711 183.46C647.323 183.916 649.166 184.715 651.124 185.742V181.178C649.398 180.379 647.669 179.808 645.943 179.466C644.214 179.123 642.603 178.895 640.877 178.895C638.459 178.895 636.155 179.237 634.197 180.036C632.242 180.721 630.399 181.862 628.788 183.346C627.291 184.715 626.137 186.427 625.333 188.253C624.526 190.079 624.065 192.02 624.065 193.96C624.065 196.585 624.64 199.095 625.908 201.264C627.291 203.318 629.016 205.144 631.203 206.627Z" fill="black"/>
<path d="M460.797 196.014H465.863C468.971 196.014 471.504 195.329 473.23 193.846C474.959 192.362 475.88 190.308 475.88 187.683C475.88 185.058 474.959 183.004 473.23 181.52C471.504 180.036 469.086 179.237 465.863 179.237H456.535V208.682H460.797V196.014ZM460.797 183.004H465.402C467.474 183.004 468.971 183.346 469.893 184.145C470.814 184.829 471.275 186.085 471.275 187.683C471.275 189.281 470.814 190.422 469.893 191.221C468.971 191.905 467.474 192.362 465.402 192.362H460.797V183.004Z" fill="black"/>
<path d="M406.679 204.801C408.176 206.171 409.905 207.312 411.86 208.111C413.817 208.91 415.89 209.252 417.965 209.252C420.151 209.252 422.224 208.91 424.181 208.111C426.139 207.312 427.865 206.285 429.362 204.801C430.859 203.432 432.012 201.72 432.816 199.894C433.624 198.068 433.967 196.128 433.967 194.074C433.967 191.905 433.624 189.965 432.816 188.139C432.012 186.313 430.859 184.601 429.362 183.118C427.865 181.748 426.139 180.607 424.181 179.808C422.224 179.009 420.151 178.667 417.965 178.667C415.775 178.667 413.817 179.009 411.86 179.808C409.905 180.607 408.176 181.634 406.679 183.118C405.182 184.487 404.032 186.199 403.225 188.025C402.421 189.851 401.96 191.791 401.96 193.731C401.96 195.899 402.303 197.84 403.11 199.666C403.917 201.606 405.182 203.318 406.679 204.801ZM407.372 189.623C407.947 188.253 408.751 186.998 409.788 185.971C410.941 184.944 412.206 184.031 413.589 183.46C414.971 182.889 416.468 182.661 417.847 182.661C419.344 182.661 420.841 182.889 422.224 183.46C423.606 184.031 424.871 184.829 425.907 185.971C427.061 187.112 427.865 188.253 428.44 189.623C429.019 190.992 429.247 192.362 429.247 193.845C429.247 195.329 429.019 196.812 428.44 198.182C427.865 199.551 427.061 200.807 426.025 201.834C424.871 202.861 423.721 203.774 422.338 204.231C420.959 204.801 419.462 205.029 417.847 205.029C416.35 205.029 414.854 204.801 413.474 204.231C412.092 203.66 410.824 202.861 409.788 201.834C408.751 200.807 407.83 199.551 407.372 198.182C406.794 196.812 406.565 195.443 406.565 193.845C406.565 192.476 406.794 190.992 407.372 189.623Z" fill="black"/>
<path d="M504.547 196.014H509.613C512.722 196.014 515.14 195.329 516.983 193.846C518.709 192.362 519.631 190.308 519.631 187.683C519.631 185.058 518.709 183.004 516.983 181.52C515.258 180.036 512.722 179.237 509.613 179.237H500.289V208.682H504.547V196.014ZM504.547 183.004H509.153C511.228 183.004 512.722 183.346 513.643 184.145C514.565 184.829 515.026 186.085 515.026 187.683C515.026 189.281 514.565 190.422 513.643 191.221C512.722 191.905 511.228 192.362 509.153 192.362H504.547V183.004Z" fill="black"/>
<path d="M0 145V247.142H16.4651V160.635H108.002V145H0Z" fill="black"/>
<path d="M958.086 453.708L958.317 483.038L977.199 482.924V479.386L962.347 479.5L962.115 453.708H958.086Z" fill="black"/>
<path d="M995.279 453.479L995.508 482.809L1018.08 482.58V479.157L999.424 479.271V469.343L1016.12 469.229V465.691L999.309 465.92V456.904L1017.15 456.79V453.251L995.279 453.479Z" fill="black"/>
<path d="M918.479 454.05L918.708 483.267L937.593 483.153V479.729L922.738 479.843L922.509 453.936L918.479 454.05Z" fill="black"/>
<path d="M889.809 454.164L890.041 483.493H893.954L893.725 454.164H889.809Z" fill="black"/>
<path d="M1183.19 384.434C1173.86 384.434 1166.38 391.852 1166.38 400.982C1166.38 410.112 1173.98 417.53 1183.19 417.53C1192.52 417.53 1200 410.112 1200 400.982C1200.11 391.852 1192.52 384.434 1183.19 384.434Z" fill="black"/>
<path d="M1151.41 256.158C1141.74 255.131 1132.06 256.386 1122.51 263.233C1116.29 267.798 1102.82 279.553 1097.87 293.591V256.044L1039.49 256.158V270.081L1066.09 270.423L1065.97 404.977H1039.49V417.416H1127V404.977H1099.02V322.807C1099.02 303.976 1110.07 289.026 1114.68 282.635C1118.36 277.499 1125.73 270.537 1133.56 269.168C1128.72 283.205 1137.59 294.618 1149.91 294.96C1158.2 295.188 1168.68 286.971 1168.79 278.069C1169.14 268.369 1162.69 257.413 1151.41 256.158Z" fill="black"/>
<path d="M658.259 326.23C658.834 302.835 652.961 282.292 627.86 264.603C593.548 240.408 542.657 249.082 518.477 280.58C505.812 297.014 499.478 315.845 499.478 336.958C499.478 365.603 512.029 394.02 539.088 409.427C552.213 416.845 566.261 420.155 581.344 420.612C623.716 421.981 646.973 398.928 658.259 363.663L646.744 363.891C640.757 375.989 633.158 393.678 622.908 398.585C611.855 403.835 601.033 407.715 588.022 408.172C568.908 408.742 555.897 399.727 550.485 386.831C544.958 373.592 540.928 344.718 542.542 326.344H658.259V326.23ZM551.867 280.01C563.957 262.092 594.817 254.902 609.554 277.613C614.273 284.917 615.888 303.634 614.734 312.535H545.19C544.5 305.802 545.765 289.14 551.867 280.01Z" fill="black"/>
<path d="M1029.36 326.23C1029.82 302.835 1024.06 282.292 998.963 264.603C964.652 240.408 913.76 249.082 889.581 280.58C876.916 297.014 870.582 315.845 870.582 336.958C870.582 365.603 883.132 394.02 910.191 409.427C923.317 416.845 937.364 420.155 952.448 420.612C994.819 421.981 1018.08 398.928 1029.36 363.663L1017.73 363.891C1011.75 375.989 1004.15 393.678 993.897 398.585C982.843 403.835 972.022 407.715 959.01 408.172C939.897 408.742 926.886 399.727 921.473 386.831C915.946 373.592 911.917 344.718 913.531 326.344H1029.36V326.23ZM922.856 280.01C934.945 262.092 965.805 254.902 980.428 277.613C985.148 284.917 986.759 303.634 985.608 312.535H916.064C915.603 305.802 916.754 289.14 922.856 280.01Z" fill="black"/>
<path d="M675.996 455.42L676.11 475.619C676.11 477.332 675.996 478.473 675.764 479.271C675.535 480.069 674.96 480.641 674.267 481.099C673.577 481.554 672.656 481.782 671.62 481.782C670.237 481.782 669.201 481.439 668.394 480.527C667.59 479.729 667.129 478.13 667.014 475.962L663.445 476.42C663.445 479.271 664.135 481.554 665.517 483.038C666.9 484.523 668.972 485.206 671.62 485.206C673.463 485.206 674.96 484.863 676.339 484.065C677.607 483.381 678.643 482.352 679.218 480.985C679.794 479.614 680.14 477.787 680.14 475.278L680.026 455.305L675.996 455.42Z" fill="black"/>
<path d="M771.789 163.032L795.968 162.803V402.922H759.699V403.036H727.574V150.934L664.246 150.82V163.032L688.426 162.803V402.922H659.066V417.758H854.112V402.922H835.116V150.934L771.789 150.82V163.032Z" fill="black"/>
<path d="M724.351 456.561C722.047 455.305 719.514 454.622 716.752 454.736C712.491 454.736 709.036 456.218 706.274 458.958C703.624 461.698 702.244 465.576 702.359 470.37C702.359 472.996 702.934 475.393 704.202 477.675C705.352 479.958 707.078 481.782 709.382 483.038C711.569 484.408 714.216 484.977 716.981 484.977C719.629 484.977 722.047 484.294 724.351 483.153C726.652 481.897 728.381 480.069 729.532 477.787C730.797 475.393 731.375 472.767 731.375 469.798C731.375 466.832 730.797 464.206 729.532 461.924C728.381 459.641 726.652 457.816 724.351 456.561ZM724.351 478.588C722.394 480.641 719.975 481.668 716.981 481.782C713.988 481.782 711.569 480.87 709.611 478.816C707.653 476.76 706.617 474.023 706.617 470.485C706.617 466.034 707.539 462.951 709.611 461.011C711.569 459.072 714.102 458.16 716.867 458.16C718.825 458.16 720.665 458.614 722.279 459.527C723.891 460.557 725.156 461.924 725.963 463.637C726.767 465.462 727.228 467.515 727.228 469.912C727.345 473.565 726.309 476.534 724.351 478.588Z" fill="black"/>
<path d="M855.38 475.733C854.805 477.332 854.23 478.928 853.769 480.527C853.308 479.042 852.847 477.446 852.155 475.733L844.095 454.507H839.722L851.697 483.722H855.841L867.47 454.278H863.326L855.38 475.733Z" fill="black"/>
<path d="M757.63 454.962L757.859 484.294H761.889L761.66 454.962H757.63Z" fill="black"/>
<path d="M809.672 454.622L809.787 477.675L793.667 454.736H789.637L789.869 484.065H793.667L793.438 461.011L809.558 483.951H813.702L813.473 454.622H809.672Z" fill="black"/>
</g>
<defs>
<clipPath id="clip0_1_2">
<rect width="1200" height="340.206" fill="white" transform="translate(0 145)"/>
</clipPath>
</defs>
</svg>
